<?xml version="1.0" standalone="no"?>
<!DOCTYPE svg PUBLIC "-//W3C//DTD SVG 20010904//EN"
 "http://www.w3.org/TR/2001/REC-SVG-20010904/DTD/svg10.dtd">
<svg version="1.0" xmlns="http://www.w3.org/2000/svg"
 width="512.000000pt" height="512.000000pt" viewBox="0 0 512.000000 512.000000"
 preserveAspectRatio="xMidYMid meet">
<metadata>
Created by potrace 1.11, written by Peter Selinger 2001-2013
</metadata>
<g transform="translate(0.000000,512.000000) scale(0.100000,-0.100000)"
fill="#000000" stroke="none">
<path d="M2468 4805 c-60 -20 -140 -95 -167 -157 -11 -25 -17 -49 -14 -52 4
-3 2 -6 -4 -6 -5 0 -10 -6 -11 -12 -2 -21 -7 -42 -14 -53 -3 -5 -12 -30 -19
-55 -7 -25 -13 -47 -14 -50 -1 -3 -7 -18 -14 -34 -6 -16 -13 -36 -15 -45 -2
-9 -6 -23 -9 -31 -7 -17 -107 -320 -111 -335 -3 -10 -9 -27 -29 -80 -7 -16
-11 -34 -9 -38 1 -4 -5 -21 -13 -37 -9 -17 -13 -30 -9 -30 4 0 2 -6 -4 -12 -6
-7 -13 -30 -17 -50 -4 -21 -12 -38 -18 -38 -6 0 -8 -3 -4 -6 3 -4 0 -18 -7
-33 -7 -14 -11 -32 -9 -38 3 -7 0 -13 -6 -13 -6 0 -8 -6 -5 -14 3 -8 0 -17 -5
-21 -6 -3 -9 -11 -6 -16 4 -5 1 -9 -5 -9 -6 0 -8 -5 -5 -10 4 -6 3 -16 -2 -23
-5 -7 -15 -32 -22 -56 -7 -25 -18 -56 -24 -70 -12 -30 -14 -37 -21 -70 -8 -36
-20 -44 -65 -39 -22 2 -43 -1 -45 -7 -3 -6 -5 -6 -5 0 -1 6 -20 9 -43 8 -63
-2 -181 -5 -193 -4 -73 7 -1130 -3 -1155 -11 -67 -21 -111 -52 -162 -116 -27
-33 -46 -113 -43 -174 6 -108 53 -168 220 -283 55 -38 102 -71 105 -74 4 -5
84 -60 138 -96 9 -5 23 -15 31 -22 9 -6 37 -28 64 -47 26 -20 52 -36 57 -36 6
0 10 -4 10 -10 0 -5 6 -10 14 -10 8 0 16 -3 18 -8 3 -8 105 -82 113 -82 3 0
17 -11 31 -25 14 -14 31 -25 39 -25 7 0 15 -4 17 -8 2 -5 35 -30 73 -57 39
-26 80 -55 91 -64 12 -9 30 -22 40 -29 11 -7 51 -35 89 -63 39 -27 76 -54 84
-59 15 -8 25 -70 11 -70 -6 0 -21 -45 -24 -75 -1 -5 -4 -14 -7 -20 -4 -5 -16
-44 -29 -85 -35 -118 -70 -230 -91 -293 -10 -31 -19 -64 -19 -72 0 -8 -5 -15
-11 -15 -5 0 -8 -4 -5 -9 3 -5 -5 -41 -19 -80 -13 -39 -21 -71 -18 -71 3 0 1
-6 -5 -12 -6 -7 -13 -30 -17 -50 -4 -21 -11 -38 -16 -38 -5 0 -6 -7 -3 -15 4
-8 1 -15 -6 -15 -6 0 -9 -4 -6 -9 3 -4 -3 -32 -13 -62 -11 -29 -17 -57 -15
-61 3 -5 0 -8 -7 -8 -7 0 -10 -3 -6 -6 3 -4 0 -22 -8 -40 -8 -19 -11 -34 -8
-34 3 0 0 -7 -7 -15 -6 -8 -9 -19 -6 -24 4 -5 2 -12 -4 -16 -6 -4 -8 -11 -5
-16 4 -5 2 -9 -3 -9 -5 0 -9 -6 -10 -12 -1 -17 -10 -53 -13 -53 -1 0 -3 -9 -5
-20 -1 -11 -10 -40 -20 -65 -14 -38 -22 -75 -25 -125 -3 -35 30 -145 43 -145
4 0 8 -5 8 -10 0 -6 19 -28 41 -49 77 -72 215 -96 297 -52 12 6 22 9 22 5 0
-4 9 3 19 15 11 12 22 21 25 19 3 -2 16 6 28 17 13 10 24 18 26 17 1 -1 11 6
22 16 11 9 29 25 40 35 11 9 20 14 20 11 0 -3 6 1 14 8 7 7 22 19 32 26 49 32
191 134 206 147 9 7 29 22 45 32 15 10 33 22 40 28 7 5 19 15 27 22 7 6 17 9
20 6 3 -4 6 -2 6 4 0 6 20 23 45 39 25 15 45 32 45 36 0 4 4 8 9 8 5 0 73 46
151 103 78 56 149 107 158 112 21 13 39 27 57 43 8 7 15 10 15 6 0 -4 6 -1 13
7 20 25 113 89 129 89 8 0 24 -9 36 -20 12 -12 22 -18 22 -15 0 4 36 -24 64
-51 6 -6 14 -10 18 -10 3 1 18 -9 32 -22 15 -12 29 -22 31 -22 3 0 11 -5 18
-10 7 -6 50 -38 97 -72 47 -33 88 -65 91 -70 3 -5 9 -9 13 -9 3 1 30 -17 60
-39 29 -22 56 -40 59 -40 4 0 16 -8 26 -18 36 -32 50 -42 60 -42 6 0 15 -9 21
-20 6 -11 18 -20 27 -20 9 0 21 -6 27 -14 6 -7 74 -58 151 -112 77 -54 142
-102 143 -106 2 -5 10 -8 18 -8 8 0 14 -3 14 -8 0 -4 18 -18 40 -32 22 -14 40
-29 40 -34 0 -5 3 -7 6 -3 3 3 16 -3 28 -15 22 -20 65 -43 79 -40 4 1 7 -2 7
-6 0 -5 12 -9 28 -10 15 -1 41 -3 57 -5 49 -6 165 32 165 53 0 6 3 9 8 7 15
-5 84 81 96 120 17 54 22 107 12 149 -8 39 -28 109 -36 129 -5 11 -14 38 -20
60 -6 22 -14 47 -17 55 -7 16 -11 30 -17 57 -3 10 -5 18 -6 18 -1 0 -4 8 -13
47 -2 7 -8 22 -14 33 -6 11 -9 28 -8 38 2 9 -1 17 -7 17 -6 0 -8 7 -4 15 3 8
1 15 -4 15 -6 0 -9 3 -8 8 1 4 -6 34 -16 67 -10 33 -19 66 -19 73 0 6 -4 12
-9 12 -5 0 -7 3 -5 7 3 5 0 19 -6 33 -5 14 -11 32 -13 40 -2 8 -42 139 -89
290 -48 151 -88 282 -90 290 -2 8 -4 15 -5 15 -2 0 -8 21 -16 60 -4 17 -11 33
-16 36 -8 5 83 79 97 79 3 0 13 7 23 16 40 37 351 252 356 246 3 -3 6 0 6 6 0
5 17 21 38 33 20 13 42 28 49 34 35 30 41 33 47 28 3 -4 6 -1 6 5 0 6 13 18
29 27 16 8 35 20 43 27 7 7 33 26 58 43 25 16 57 39 71 50 14 11 35 26 45 32
10 7 79 55 152 107 72 52 132 93 132 90 0 -3 14 11 30 29 17 19 30 39 30 45 0
5 6 15 14 21 8 7 17 28 22 49 10 50 11 152 2 152 -5 0 -7 3 -6 8 5 15 -38 88
-69 119 -18 18 -54 43 -80 55 l-48 23 -585 3 c-322 1 -589 2 -595 3 -99 5
-236 2 -239 -6 -3 -6 -5 -6 -5 0 -1 6 -15 9 -34 7 -28 -3 -35 0 -45 23 -7 14
-12 33 -12 41 0 8 -4 22 -9 32 -12 24 -50 137 -66 197 -4 17 -10 35 -14 40 -3
6 -6 15 -7 22 -3 16 -63 202 -74 228 -11 26 -220 670 -220 678 0 3 -5 18 -12
34 -6 15 -12 33 -14 40 -1 7 -14 36 -29 66 -27 53 -109 126 -152 134 -61 12
-143 11 -185 -2z"/>
</g>
</svg>
